<mxfile host="app.diagrams.net" modified="2021-07-29T09:27:26.549Z" agent="5.0 (Windows NT 10.0; Win64; x64) AppleWebKit/537.36 (KHTML, like Gecko) Chrome/92.0.4515.107 Safari/537.36" etag="_Af3_4lP1OvHh_d5HIoA" version="14.9.2" type="github">
  <diagram id="DrQXqkzAF4x7ljiE7f6P" name="Page-1">
    <mxGraphModel dx="2073" dy="1065" grid="0" gridSize="10" guides="1" tooltips="1" connect="1" arrows="1" fold="1" page="0" pageScale="1" pageWidth="827" pageHeight="1169" math="0" shadow="0">
      <root>
        <mxCell id="0" />
        <mxCell id="1" parent="0" />
        <mxCell id="YlSi5dVUK5fDgeekknWG-3" value="Member" style="shape=table;startSize=30;container=1;collapsible=0;childLayout=tableLayout;fixedRows=1;rowLines=0;fontStyle=1;align=center;" parent="1" vertex="1">
          <mxGeometry x="80" y="561" width="180" height="201" as="geometry" />
        </mxCell>
        <mxCell id="YlSi5dVUK5fDgeekknWG-4" value="" style="shape=partialRectangle;html=1;whiteSpace=wrap;collapsible=0;dropTarget=0;pointerEvents=0;fillColor=none;top=0;left=0;bottom=1;right=0;points=[[0,0.5],[1,0.5]];portConstraint=eastwest;" parent="YlSi5dVUK5fDgeekknWG-3" vertex="1">
          <mxGeometry y="30" width="180" height="81" as="geometry" />
        </mxCell>
        <mxCell id="YlSi5dVUK5fDgeekknWG-5" value="1" style="shape=partialRectangle;html=1;whiteSpace=wrap;connectable=0;fillColor=none;top=0;left=0;bottom=0;right=0;overflow=hidden;" parent="YlSi5dVUK5fDgeekknWG-4" vertex="1">
          <mxGeometry width="40" height="81" as="geometry" />
        </mxCell>
        <mxCell id="YlSi5dVUK5fDgeekknWG-6" value="ID" style="shape=partialRectangle;html=1;whiteSpace=wrap;connectable=0;fillColor=none;top=0;left=0;bottom=0;right=0;align=left;spacingLeft=6;overflow=hidden;" parent="YlSi5dVUK5fDgeekknWG-4" vertex="1">
          <mxGeometry x="40" width="140" height="81" as="geometry" />
        </mxCell>
        <mxCell id="YlSi5dVUK5fDgeekknWG-7" value="" style="shape=partialRectangle;html=1;whiteSpace=wrap;collapsible=0;dropTarget=0;pointerEvents=0;fillColor=none;top=0;left=0;bottom=0;right=0;points=[[0,0.5],[1,0.5]];portConstraint=eastwest;" parent="YlSi5dVUK5fDgeekknWG-3" vertex="1">
          <mxGeometry y="111" width="180" height="30" as="geometry" />
        </mxCell>
        <mxCell id="YlSi5dVUK5fDgeekknWG-8" value="2" style="shape=partialRectangle;html=1;whiteSpace=wrap;connectable=0;fillColor=none;top=0;left=0;bottom=0;right=0;overflow=hidden;" parent="YlSi5dVUK5fDgeekknWG-7" vertex="1">
          <mxGeometry width="40" height="30" as="geometry" />
        </mxCell>
        <mxCell id="YlSi5dVUK5fDgeekknWG-9" value="Value 2" style="shape=partialRectangle;html=1;whiteSpace=wrap;connectable=0;fillColor=none;top=0;left=0;bottom=0;right=0;align=left;spacingLeft=6;overflow=hidden;" parent="YlSi5dVUK5fDgeekknWG-7" vertex="1">
          <mxGeometry x="40" width="140" height="30" as="geometry" />
        </mxCell>
        <mxCell id="YlSi5dVUK5fDgeekknWG-10" value="" style="shape=partialRectangle;html=1;whiteSpace=wrap;collapsible=0;dropTarget=0;pointerEvents=0;fillColor=none;top=0;left=0;bottom=0;right=0;points=[[0,0.5],[1,0.5]];portConstraint=eastwest;" parent="YlSi5dVUK5fDgeekknWG-3" vertex="1">
          <mxGeometry y="141" width="180" height="30" as="geometry" />
        </mxCell>
        <mxCell id="YlSi5dVUK5fDgeekknWG-11" value="3" style="shape=partialRectangle;html=1;whiteSpace=wrap;connectable=0;fillColor=none;top=0;left=0;bottom=0;right=0;overflow=hidden;" parent="YlSi5dVUK5fDgeekknWG-10" vertex="1">
          <mxGeometry width="40" height="30" as="geometry" />
        </mxCell>
        <mxCell id="YlSi5dVUK5fDgeekknWG-12" value="Value 3" style="shape=partialRectangle;html=1;whiteSpace=wrap;connectable=0;fillColor=none;top=0;left=0;bottom=0;right=0;align=left;spacingLeft=6;overflow=hidden;" parent="YlSi5dVUK5fDgeekknWG-10" vertex="1">
          <mxGeometry x="40" width="140" height="30" as="geometry" />
        </mxCell>
        <mxCell id="YlSi5dVUK5fDgeekknWG-13" value="Admin" style="shape=table;startSize=30;container=1;collapsible=0;childLayout=tableLayout;fixedRows=1;rowLines=0;fontStyle=1;align=center;" parent="1" vertex="1">
          <mxGeometry x="-266" y="1074" width="180" height="150" as="geometry" />
        </mxCell>
        <mxCell id="YlSi5dVUK5fDgeekknWG-14" value="" style="shape=partialRectangle;html=1;whiteSpace=wrap;collapsible=0;dropTarget=0;pointerEvents=0;fillColor=none;top=0;left=0;bottom=1;right=0;points=[[0,0.5],[1,0.5]];portConstraint=eastwest;" parent="YlSi5dVUK5fDgeekknWG-13" vertex="1">
          <mxGeometry y="30" width="180" height="30" as="geometry" />
        </mxCell>
        <mxCell id="YlSi5dVUK5fDgeekknWG-15" value="1" style="shape=partialRectangle;html=1;whiteSpace=wrap;connectable=0;fillColor=none;top=0;left=0;bottom=0;right=0;overflow=hidden;" parent="YlSi5dVUK5fDgeekknWG-14" vertex="1">
          <mxGeometry width="40" height="30" as="geometry" />
        </mxCell>
        <mxCell id="YlSi5dVUK5fDgeekknWG-16" value="ID" style="shape=partialRectangle;html=1;whiteSpace=wrap;connectable=0;fillColor=none;top=0;left=0;bottom=0;right=0;align=left;spacingLeft=6;overflow=hidden;" parent="YlSi5dVUK5fDgeekknWG-14" vertex="1">
          <mxGeometry x="40" width="140" height="30" as="geometry" />
        </mxCell>
        <mxCell id="YlSi5dVUK5fDgeekknWG-17" value="" style="shape=partialRectangle;html=1;whiteSpace=wrap;collapsible=0;dropTarget=0;pointerEvents=0;fillColor=none;top=0;left=0;bottom=0;right=0;points=[[0,0.5],[1,0.5]];portConstraint=eastwest;" parent="YlSi5dVUK5fDgeekknWG-13" vertex="1">
          <mxGeometry y="60" width="180" height="30" as="geometry" />
        </mxCell>
        <mxCell id="YlSi5dVUK5fDgeekknWG-18" value="2" style="shape=partialRectangle;html=1;whiteSpace=wrap;connectable=0;fillColor=none;top=0;left=0;bottom=0;right=0;overflow=hidden;" parent="YlSi5dVUK5fDgeekknWG-17" vertex="1">
          <mxGeometry width="40" height="30" as="geometry" />
        </mxCell>
        <mxCell id="YlSi5dVUK5fDgeekknWG-19" value="Value 2" style="shape=partialRectangle;html=1;whiteSpace=wrap;connectable=0;fillColor=none;top=0;left=0;bottom=0;right=0;align=left;spacingLeft=6;overflow=hidden;" parent="YlSi5dVUK5fDgeekknWG-17" vertex="1">
          <mxGeometry x="40" width="140" height="30" as="geometry" />
        </mxCell>
        <mxCell id="YlSi5dVUK5fDgeekknWG-20" value="" style="shape=partialRectangle;html=1;whiteSpace=wrap;collapsible=0;dropTarget=0;pointerEvents=0;fillColor=none;top=0;left=0;bottom=0;right=0;points=[[0,0.5],[1,0.5]];portConstraint=eastwest;" parent="YlSi5dVUK5fDgeekknWG-13" vertex="1">
          <mxGeometry y="90" width="180" height="30" as="geometry" />
        </mxCell>
        <mxCell id="YlSi5dVUK5fDgeekknWG-21" value="3" style="shape=partialRectangle;html=1;whiteSpace=wrap;connectable=0;fillColor=none;top=0;left=0;bottom=0;right=0;overflow=hidden;" parent="YlSi5dVUK5fDgeekknWG-20" vertex="1">
          <mxGeometry width="40" height="30" as="geometry" />
        </mxCell>
        <mxCell id="YlSi5dVUK5fDgeekknWG-22" value="Value 3" style="shape=partialRectangle;html=1;whiteSpace=wrap;connectable=0;fillColor=none;top=0;left=0;bottom=0;right=0;align=left;spacingLeft=6;overflow=hidden;" parent="YlSi5dVUK5fDgeekknWG-20" vertex="1">
          <mxGeometry x="40" width="140" height="30" as="geometry" />
        </mxCell>
        <mxCell id="3mrBlYlQJBhg7aza0nXE-19" value="Review" style="shape=table;startSize=30;container=1;collapsible=0;childLayout=tableLayout;fixedRows=1;rowLines=0;fontStyle=1;align=center;" vertex="1" parent="1">
          <mxGeometry x="448" y="822" width="180" height="150" as="geometry" />
        </mxCell>
        <mxCell id="3mrBlYlQJBhg7aza0nXE-20" value="" style="shape=partialRectangle;html=1;whiteSpace=wrap;collapsible=0;dropTarget=0;pointerEvents=0;fillColor=none;top=0;left=0;bottom=1;right=0;points=[[0,0.5],[1,0.5]];portConstraint=eastwest;" vertex="1" parent="3mrBlYlQJBhg7aza0nXE-19">
          <mxGeometry y="30" width="180" height="30" as="geometry" />
        </mxCell>
        <mxCell id="3mrBlYlQJBhg7aza0nXE-21" value="1" style="shape=partialRectangle;html=1;whiteSpace=wrap;connectable=0;fillColor=none;top=0;left=0;bottom=0;right=0;overflow=hidden;" vertex="1" parent="3mrBlYlQJBhg7aza0nXE-20">
          <mxGeometry width="40" height="30" as="geometry" />
        </mxCell>
        <mxCell id="3mrBlYlQJBhg7aza0nXE-22" value="ID" style="shape=partialRectangle;html=1;whiteSpace=wrap;connectable=0;fillColor=none;top=0;left=0;bottom=0;right=0;align=left;spacingLeft=6;overflow=hidden;" vertex="1" parent="3mrBlYlQJBhg7aza0nXE-20">
          <mxGeometry x="40" width="140" height="30" as="geometry" />
        </mxCell>
        <mxCell id="3mrBlYlQJBhg7aza0nXE-23" value="" style="shape=partialRectangle;html=1;whiteSpace=wrap;collapsible=0;dropTarget=0;pointerEvents=0;fillColor=none;top=0;left=0;bottom=0;right=0;points=[[0,0.5],[1,0.5]];portConstraint=eastwest;" vertex="1" parent="3mrBlYlQJBhg7aza0nXE-19">
          <mxGeometry y="60" width="180" height="30" as="geometry" />
        </mxCell>
        <mxCell id="3mrBlYlQJBhg7aza0nXE-24" value="2" style="shape=partialRectangle;html=1;whiteSpace=wrap;connectable=0;fillColor=none;top=0;left=0;bottom=0;right=0;overflow=hidden;" vertex="1" parent="3mrBlYlQJBhg7aza0nXE-23">
          <mxGeometry width="40" height="30" as="geometry" />
        </mxCell>
        <mxCell id="3mrBlYlQJBhg7aza0nXE-25" value="member_id" style="shape=partialRectangle;html=1;whiteSpace=wrap;connectable=0;fillColor=none;top=0;left=0;bottom=0;right=0;align=left;spacingLeft=6;overflow=hidden;" vertex="1" parent="3mrBlYlQJBhg7aza0nXE-23">
          <mxGeometry x="40" width="140" height="30" as="geometry" />
        </mxCell>
        <mxCell id="3mrBlYlQJBhg7aza0nXE-26" value="" style="shape=partialRectangle;html=1;whiteSpace=wrap;collapsible=0;dropTarget=0;pointerEvents=0;fillColor=none;top=0;left=0;bottom=0;right=0;points=[[0,0.5],[1,0.5]];portConstraint=eastwest;" vertex="1" parent="3mrBlYlQJBhg7aza0nXE-19">
          <mxGeometry y="90" width="180" height="30" as="geometry" />
        </mxCell>
        <mxCell id="3mrBlYlQJBhg7aza0nXE-27" value="3" style="shape=partialRectangle;html=1;whiteSpace=wrap;connectable=0;fillColor=none;top=0;left=0;bottom=0;right=0;overflow=hidden;" vertex="1" parent="3mrBlYlQJBhg7aza0nXE-26">
          <mxGeometry width="40" height="30" as="geometry" />
        </mxCell>
        <mxCell id="3mrBlYlQJBhg7aza0nXE-28" value="post_id" style="shape=partialRectangle;html=1;whiteSpace=wrap;connectable=0;fillColor=none;top=0;left=0;bottom=0;right=0;align=left;spacingLeft=6;overflow=hidden;" vertex="1" parent="3mrBlYlQJBhg7aza0nXE-26">
          <mxGeometry x="40" width="140" height="30" as="geometry" />
        </mxCell>
        <mxCell id="YlSi5dVUK5fDgeekknWG-33" value="QNA" style="shape=table;startSize=30;container=1;collapsible=0;childLayout=tableLayout;fixedRows=1;rowLines=0;fontStyle=1;align=center;" vertex="1" parent="1">
          <mxGeometry x="80" y="829" width="180" height="150" as="geometry" />
        </mxCell>
        <mxCell id="YlSi5dVUK5fDgeekknWG-34" value="" style="shape=partialRectangle;html=1;whiteSpace=wrap;collapsible=0;dropTarget=0;pointerEvents=0;fillColor=none;top=0;left=0;bottom=1;right=0;points=[[0,0.5],[1,0.5]];portConstraint=eastwest;" vertex="1" parent="YlSi5dVUK5fDgeekknWG-33">
          <mxGeometry y="30" width="180" height="30" as="geometry" />
        </mxCell>
        <mxCell id="YlSi5dVUK5fDgeekknWG-35" value="1" style="shape=partialRectangle;html=1;whiteSpace=wrap;connectable=0;fillColor=none;top=0;left=0;bottom=0;right=0;overflow=hidden;" vertex="1" parent="YlSi5dVUK5fDgeekknWG-34">
          <mxGeometry width="40" height="30" as="geometry" />
        </mxCell>
        <mxCell id="YlSi5dVUK5fDgeekknWG-36" value="ID" style="shape=partialRectangle;html=1;whiteSpace=wrap;connectable=0;fillColor=none;top=0;left=0;bottom=0;right=0;align=left;spacingLeft=6;overflow=hidden;" vertex="1" parent="YlSi5dVUK5fDgeekknWG-34">
          <mxGeometry x="40" width="140" height="30" as="geometry" />
        </mxCell>
        <mxCell id="YlSi5dVUK5fDgeekknWG-37" value="" style="shape=partialRectangle;html=1;whiteSpace=wrap;collapsible=0;dropTarget=0;pointerEvents=0;fillColor=none;top=0;left=0;bottom=0;right=0;points=[[0,0.5],[1,0.5]];portConstraint=eastwest;" vertex="1" parent="YlSi5dVUK5fDgeekknWG-33">
          <mxGeometry y="60" width="180" height="30" as="geometry" />
        </mxCell>
        <mxCell id="YlSi5dVUK5fDgeekknWG-38" value="2" style="shape=partialRectangle;html=1;whiteSpace=wrap;connectable=0;fillColor=none;top=0;left=0;bottom=0;right=0;overflow=hidden;" vertex="1" parent="YlSi5dVUK5fDgeekknWG-37">
          <mxGeometry width="40" height="30" as="geometry" />
        </mxCell>
        <mxCell id="YlSi5dVUK5fDgeekknWG-39" value="member_id" style="shape=partialRectangle;html=1;whiteSpace=wrap;connectable=0;fillColor=none;top=0;left=0;bottom=0;right=0;align=left;spacingLeft=6;overflow=hidden;" vertex="1" parent="YlSi5dVUK5fDgeekknWG-37">
          <mxGeometry x="40" width="140" height="30" as="geometry" />
        </mxCell>
        <mxCell id="YlSi5dVUK5fDgeekknWG-40" value="" style="shape=partialRectangle;html=1;whiteSpace=wrap;collapsible=0;dropTarget=0;pointerEvents=0;fillColor=none;top=0;left=0;bottom=0;right=0;points=[[0,0.5],[1,0.5]];portConstraint=eastwest;" vertex="1" parent="YlSi5dVUK5fDgeekknWG-33">
          <mxGeometry y="90" width="180" height="30" as="geometry" />
        </mxCell>
        <mxCell id="YlSi5dVUK5fDgeekknWG-41" value="3" style="shape=partialRectangle;html=1;whiteSpace=wrap;connectable=0;fillColor=none;top=0;left=0;bottom=0;right=0;overflow=hidden;" vertex="1" parent="YlSi5dVUK5fDgeekknWG-40">
          <mxGeometry width="40" height="30" as="geometry" />
        </mxCell>
        <mxCell id="YlSi5dVUK5fDgeekknWG-42" value="review_id" style="shape=partialRectangle;html=1;whiteSpace=wrap;connectable=0;fillColor=none;top=0;left=0;bottom=0;right=0;align=left;spacingLeft=6;overflow=hidden;" vertex="1" parent="YlSi5dVUK5fDgeekknWG-40">
          <mxGeometry x="40" width="140" height="30" as="geometry" />
        </mxCell>
        <mxCell id="YlSi5dVUK5fDgeekknWG-52" value="QNA Review" style="shape=table;startSize=30;container=1;collapsible=0;childLayout=tableLayout;fixedRows=1;rowLines=0;fontStyle=1;align=center;" vertex="1" parent="1">
          <mxGeometry x="80" y="1074" width="180" height="150" as="geometry" />
        </mxCell>
        <mxCell id="YlSi5dVUK5fDgeekknWG-53" value="" style="shape=partialRectangle;html=1;whiteSpace=wrap;collapsible=0;dropTarget=0;pointerEvents=0;fillColor=none;top=0;left=0;bottom=1;right=0;points=[[0,0.5],[1,0.5]];portConstraint=eastwest;" vertex="1" parent="YlSi5dVUK5fDgeekknWG-52">
          <mxGeometry y="30" width="180" height="30" as="geometry" />
        </mxCell>
        <mxCell id="YlSi5dVUK5fDgeekknWG-54" value="1" style="shape=partialRectangle;html=1;whiteSpace=wrap;connectable=0;fillColor=none;top=0;left=0;bottom=0;right=0;overflow=hidden;" vertex="1" parent="YlSi5dVUK5fDgeekknWG-53">
          <mxGeometry width="40" height="30" as="geometry" />
        </mxCell>
        <mxCell id="YlSi5dVUK5fDgeekknWG-55" value="ID" style="shape=partialRectangle;html=1;whiteSpace=wrap;connectable=0;fillColor=none;top=0;left=0;bottom=0;right=0;align=left;spacingLeft=6;overflow=hidden;" vertex="1" parent="YlSi5dVUK5fDgeekknWG-53">
          <mxGeometry x="40" width="140" height="30" as="geometry" />
        </mxCell>
        <mxCell id="YlSi5dVUK5fDgeekknWG-56" value="" style="shape=partialRectangle;html=1;whiteSpace=wrap;collapsible=0;dropTarget=0;pointerEvents=0;fillColor=none;top=0;left=0;bottom=0;right=0;points=[[0,0.5],[1,0.5]];portConstraint=eastwest;" vertex="1" parent="YlSi5dVUK5fDgeekknWG-52">
          <mxGeometry y="60" width="180" height="30" as="geometry" />
        </mxCell>
        <mxCell id="YlSi5dVUK5fDgeekknWG-57" value="2" style="shape=partialRectangle;html=1;whiteSpace=wrap;connectable=0;fillColor=none;top=0;left=0;bottom=0;right=0;overflow=hidden;" vertex="1" parent="YlSi5dVUK5fDgeekknWG-56">
          <mxGeometry width="40" height="30" as="geometry" />
        </mxCell>
        <mxCell id="YlSi5dVUK5fDgeekknWG-58" value="admin_id" style="shape=partialRectangle;html=1;whiteSpace=wrap;connectable=0;fillColor=none;top=0;left=0;bottom=0;right=0;align=left;spacingLeft=6;overflow=hidden;" vertex="1" parent="YlSi5dVUK5fDgeekknWG-56">
          <mxGeometry x="40" width="140" height="30" as="geometry" />
        </mxCell>
        <mxCell id="YlSi5dVUK5fDgeekknWG-59" value="" style="shape=partialRectangle;html=1;whiteSpace=wrap;collapsible=0;dropTarget=0;pointerEvents=0;fillColor=none;top=0;left=0;bottom=0;right=0;points=[[0,0.5],[1,0.5]];portConstraint=eastwest;" vertex="1" parent="YlSi5dVUK5fDgeekknWG-52">
          <mxGeometry y="90" width="180" height="30" as="geometry" />
        </mxCell>
        <mxCell id="YlSi5dVUK5fDgeekknWG-60" value="3" style="shape=partialRectangle;html=1;whiteSpace=wrap;connectable=0;fillColor=none;top=0;left=0;bottom=0;right=0;overflow=hidden;" vertex="1" parent="YlSi5dVUK5fDgeekknWG-59">
          <mxGeometry width="40" height="30" as="geometry" />
        </mxCell>
        <mxCell id="YlSi5dVUK5fDgeekknWG-61" value="Value 3" style="shape=partialRectangle;html=1;whiteSpace=wrap;connectable=0;fillColor=none;top=0;left=0;bottom=0;right=0;align=left;spacingLeft=6;overflow=hidden;" vertex="1" parent="YlSi5dVUK5fDgeekknWG-59">
          <mxGeometry x="40" width="140" height="30" as="geometry" />
        </mxCell>
        <mxCell id="3mrBlYlQJBhg7aza0nXE-60" value="Report" style="shape=table;startSize=30;container=1;collapsible=0;childLayout=tableLayout;fixedRows=1;rowLines=0;fontStyle=1;align=center;" vertex="1" parent="1">
          <mxGeometry x="-266" y="829" width="180" height="150" as="geometry" />
        </mxCell>
        <mxCell id="3mrBlYlQJBhg7aza0nXE-61" value="" style="shape=partialRectangle;html=1;whiteSpace=wrap;collapsible=0;dropTarget=0;pointerEvents=0;fillColor=none;top=0;left=0;bottom=1;right=0;points=[[0,0.5],[1,0.5]];portConstraint=eastwest;" vertex="1" parent="3mrBlYlQJBhg7aza0nXE-60">
          <mxGeometry y="30" width="180" height="30" as="geometry" />
        </mxCell>
        <mxCell id="3mrBlYlQJBhg7aza0nXE-62" value="1" style="shape=partialRectangle;html=1;whiteSpace=wrap;connectable=0;fillColor=none;top=0;left=0;bottom=0;right=0;overflow=hidden;" vertex="1" parent="3mrBlYlQJBhg7aza0nXE-61">
          <mxGeometry width="40" height="30" as="geometry" />
        </mxCell>
        <mxCell id="3mrBlYlQJBhg7aza0nXE-63" value="ID" style="shape=partialRectangle;html=1;whiteSpace=wrap;connectable=0;fillColor=none;top=0;left=0;bottom=0;right=0;align=left;spacingLeft=6;overflow=hidden;" vertex="1" parent="3mrBlYlQJBhg7aza0nXE-61">
          <mxGeometry x="40" width="140" height="30" as="geometry" />
        </mxCell>
        <mxCell id="3mrBlYlQJBhg7aza0nXE-64" value="" style="shape=partialRectangle;html=1;whiteSpace=wrap;collapsible=0;dropTarget=0;pointerEvents=0;fillColor=none;top=0;left=0;bottom=0;right=0;points=[[0,0.5],[1,0.5]];portConstraint=eastwest;" vertex="1" parent="3mrBlYlQJBhg7aza0nXE-60">
          <mxGeometry y="60" width="180" height="30" as="geometry" />
        </mxCell>
        <mxCell id="3mrBlYlQJBhg7aza0nXE-65" value="2" style="shape=partialRectangle;html=1;whiteSpace=wrap;connectable=0;fillColor=none;top=0;left=0;bottom=0;right=0;overflow=hidden;" vertex="1" parent="3mrBlYlQJBhg7aza0nXE-64">
          <mxGeometry width="40" height="30" as="geometry" />
        </mxCell>
        <mxCell id="3mrBlYlQJBhg7aza0nXE-66" value="member_id" style="shape=partialRectangle;html=1;whiteSpace=wrap;connectable=0;fillColor=none;top=0;left=0;bottom=0;right=0;align=left;spacingLeft=6;overflow=hidden;" vertex="1" parent="3mrBlYlQJBhg7aza0nXE-64">
          <mxGeometry x="40" width="140" height="30" as="geometry" />
        </mxCell>
        <mxCell id="3mrBlYlQJBhg7aza0nXE-67" value="" style="shape=partialRectangle;html=1;whiteSpace=wrap;collapsible=0;dropTarget=0;pointerEvents=0;fillColor=none;top=0;left=0;bottom=0;right=0;points=[[0,0.5],[1,0.5]];portConstraint=eastwest;" vertex="1" parent="3mrBlYlQJBhg7aza0nXE-60">
          <mxGeometry y="90" width="180" height="30" as="geometry" />
        </mxCell>
        <mxCell id="3mrBlYlQJBhg7aza0nXE-68" value="3" style="shape=partialRectangle;html=1;whiteSpace=wrap;connectable=0;fillColor=none;top=0;left=0;bottom=0;right=0;overflow=hidden;" vertex="1" parent="3mrBlYlQJBhg7aza0nXE-67">
          <mxGeometry width="40" height="30" as="geometry" />
        </mxCell>
        <mxCell id="3mrBlYlQJBhg7aza0nXE-69" value="Value 3" style="shape=partialRectangle;html=1;whiteSpace=wrap;connectable=0;fillColor=none;top=0;left=0;bottom=0;right=0;align=left;spacingLeft=6;overflow=hidden;" vertex="1" parent="3mrBlYlQJBhg7aza0nXE-67">
          <mxGeometry x="40" width="140" height="30" as="geometry" />
        </mxCell>
        <mxCell id="YlSi5dVUK5fDgeekknWG-62" value="Category" style="shape=table;startSize=30;container=1;collapsible=0;childLayout=tableLayout;fixedRows=1;rowLines=0;fontStyle=1;align=center;" vertex="1" parent="1">
          <mxGeometry x="867" y="1341" width="180" height="150" as="geometry" />
        </mxCell>
        <mxCell id="YlSi5dVUK5fDgeekknWG-63" value="" style="shape=partialRectangle;html=1;whiteSpace=wrap;collapsible=0;dropTarget=0;pointerEvents=0;fillColor=none;top=0;left=0;bottom=1;right=0;points=[[0,0.5],[1,0.5]];portConstraint=eastwest;" vertex="1" parent="YlSi5dVUK5fDgeekknWG-62">
          <mxGeometry y="30" width="180" height="30" as="geometry" />
        </mxCell>
        <mxCell id="YlSi5dVUK5fDgeekknWG-64" value="1" style="shape=partialRectangle;html=1;whiteSpace=wrap;connectable=0;fillColor=none;top=0;left=0;bottom=0;right=0;overflow=hidden;" vertex="1" parent="YlSi5dVUK5fDgeekknWG-63">
          <mxGeometry width="40" height="30" as="geometry" />
        </mxCell>
        <mxCell id="YlSi5dVUK5fDgeekknWG-65" value="ID" style="shape=partialRectangle;html=1;whiteSpace=wrap;connectable=0;fillColor=none;top=0;left=0;bottom=0;right=0;align=left;spacingLeft=6;overflow=hidden;" vertex="1" parent="YlSi5dVUK5fDgeekknWG-63">
          <mxGeometry x="40" width="140" height="30" as="geometry" />
        </mxCell>
        <mxCell id="YlSi5dVUK5fDgeekknWG-66" value="" style="shape=partialRectangle;html=1;whiteSpace=wrap;collapsible=0;dropTarget=0;pointerEvents=0;fillColor=none;top=0;left=0;bottom=0;right=0;points=[[0,0.5],[1,0.5]];portConstraint=eastwest;" vertex="1" parent="YlSi5dVUK5fDgeekknWG-62">
          <mxGeometry y="60" width="180" height="30" as="geometry" />
        </mxCell>
        <mxCell id="YlSi5dVUK5fDgeekknWG-67" value="2" style="shape=partialRectangle;html=1;whiteSpace=wrap;connectable=0;fillColor=none;top=0;left=0;bottom=0;right=0;overflow=hidden;" vertex="1" parent="YlSi5dVUK5fDgeekknWG-66">
          <mxGeometry width="40" height="30" as="geometry" />
        </mxCell>
        <mxCell id="YlSi5dVUK5fDgeekknWG-68" value="admin_id" style="shape=partialRectangle;html=1;whiteSpace=wrap;connectable=0;fillColor=none;top=0;left=0;bottom=0;right=0;align=left;spacingLeft=6;overflow=hidden;" vertex="1" parent="YlSi5dVUK5fDgeekknWG-66">
          <mxGeometry x="40" width="140" height="30" as="geometry" />
        </mxCell>
        <mxCell id="YlSi5dVUK5fDgeekknWG-69" value="" style="shape=partialRectangle;html=1;whiteSpace=wrap;collapsible=0;dropTarget=0;pointerEvents=0;fillColor=none;top=0;left=0;bottom=0;right=0;points=[[0,0.5],[1,0.5]];portConstraint=eastwest;" vertex="1" parent="YlSi5dVUK5fDgeekknWG-62">
          <mxGeometry y="90" width="180" height="30" as="geometry" />
        </mxCell>
        <mxCell id="YlSi5dVUK5fDgeekknWG-70" value="3" style="shape=partialRectangle;html=1;whiteSpace=wrap;connectable=0;fillColor=none;top=0;left=0;bottom=0;right=0;overflow=hidden;" vertex="1" parent="YlSi5dVUK5fDgeekknWG-69">
          <mxGeometry width="40" height="30" as="geometry" />
        </mxCell>
        <mxCell id="YlSi5dVUK5fDgeekknWG-71" value="Value 3" style="shape=partialRectangle;html=1;whiteSpace=wrap;connectable=0;fillColor=none;top=0;left=0;bottom=0;right=0;align=left;spacingLeft=6;overflow=hidden;" vertex="1" parent="YlSi5dVUK5fDgeekknWG-69">
          <mxGeometry x="40" width="140" height="30" as="geometry" />
        </mxCell>
        <mxCell id="3mrBlYlQJBhg7aza0nXE-70" value="Likes" style="shape=table;startSize=30;container=1;collapsible=0;childLayout=tableLayout;fixedRows=1;rowLines=0;fontStyle=1;align=center;" vertex="1" parent="1">
          <mxGeometry x="80" y="255" width="180" height="150" as="geometry" />
        </mxCell>
        <mxCell id="3mrBlYlQJBhg7aza0nXE-71" value="" style="shape=partialRectangle;html=1;whiteSpace=wrap;collapsible=0;dropTarget=0;pointerEvents=0;fillColor=none;top=0;left=0;bottom=1;right=0;points=[[0,0.5],[1,0.5]];portConstraint=eastwest;" vertex="1" parent="3mrBlYlQJBhg7aza0nXE-70">
          <mxGeometry y="30" width="180" height="30" as="geometry" />
        </mxCell>
        <mxCell id="3mrBlYlQJBhg7aza0nXE-72" value="1" style="shape=partialRectangle;html=1;whiteSpace=wrap;connectable=0;fillColor=none;top=0;left=0;bottom=0;right=0;overflow=hidden;" vertex="1" parent="3mrBlYlQJBhg7aza0nXE-71">
          <mxGeometry width="40" height="30" as="geometry" />
        </mxCell>
        <mxCell id="3mrBlYlQJBhg7aza0nXE-73" value="ID" style="shape=partialRectangle;html=1;whiteSpace=wrap;connectable=0;fillColor=none;top=0;left=0;bottom=0;right=0;align=left;spacingLeft=6;overflow=hidden;" vertex="1" parent="3mrBlYlQJBhg7aza0nXE-71">
          <mxGeometry x="40" width="140" height="30" as="geometry" />
        </mxCell>
        <mxCell id="3mrBlYlQJBhg7aza0nXE-74" value="" style="shape=partialRectangle;html=1;whiteSpace=wrap;collapsible=0;dropTarget=0;pointerEvents=0;fillColor=none;top=0;left=0;bottom=0;right=0;points=[[0,0.5],[1,0.5]];portConstraint=eastwest;" vertex="1" parent="3mrBlYlQJBhg7aza0nXE-70">
          <mxGeometry y="60" width="180" height="30" as="geometry" />
        </mxCell>
        <mxCell id="3mrBlYlQJBhg7aza0nXE-75" value="2" style="shape=partialRectangle;html=1;whiteSpace=wrap;connectable=0;fillColor=none;top=0;left=0;bottom=0;right=0;overflow=hidden;" vertex="1" parent="3mrBlYlQJBhg7aza0nXE-74">
          <mxGeometry width="40" height="30" as="geometry" />
        </mxCell>
        <mxCell id="3mrBlYlQJBhg7aza0nXE-76" value="member_id" style="shape=partialRectangle;html=1;whiteSpace=wrap;connectable=0;fillColor=none;top=0;left=0;bottom=0;right=0;align=left;spacingLeft=6;overflow=hidden;" vertex="1" parent="3mrBlYlQJBhg7aza0nXE-74">
          <mxGeometry x="40" width="140" height="30" as="geometry" />
        </mxCell>
        <mxCell id="3mrBlYlQJBhg7aza0nXE-77" value="" style="shape=partialRectangle;html=1;whiteSpace=wrap;collapsible=0;dropTarget=0;pointerEvents=0;fillColor=none;top=0;left=0;bottom=0;right=0;points=[[0,0.5],[1,0.5]];portConstraint=eastwest;" vertex="1" parent="3mrBlYlQJBhg7aza0nXE-70">
          <mxGeometry y="90" width="180" height="30" as="geometry" />
        </mxCell>
        <mxCell id="3mrBlYlQJBhg7aza0nXE-78" value="3" style="shape=partialRectangle;html=1;whiteSpace=wrap;connectable=0;fillColor=none;top=0;left=0;bottom=0;right=0;overflow=hidden;" vertex="1" parent="3mrBlYlQJBhg7aza0nXE-77">
          <mxGeometry width="40" height="30" as="geometry" />
        </mxCell>
        <mxCell id="3mrBlYlQJBhg7aza0nXE-79" value="post_id" style="shape=partialRectangle;html=1;whiteSpace=wrap;connectable=0;fillColor=none;top=0;left=0;bottom=0;right=0;align=left;spacingLeft=6;overflow=hidden;" vertex="1" parent="3mrBlYlQJBhg7aza0nXE-77">
          <mxGeometry x="40" width="140" height="30" as="geometry" />
        </mxCell>
        <mxCell id="YlSi5dVUK5fDgeekknWG-72" value="Tag" style="shape=table;startSize=30;container=1;collapsible=0;childLayout=tableLayout;fixedRows=1;rowLines=0;fontStyle=1;align=center;" vertex="1" parent="1">
          <mxGeometry x="867" y="822" width="180" height="150" as="geometry" />
        </mxCell>
        <mxCell id="YlSi5dVUK5fDgeekknWG-73" value="" style="shape=partialRectangle;html=1;whiteSpace=wrap;collapsible=0;dropTarget=0;pointerEvents=0;fillColor=none;top=0;left=0;bottom=1;right=0;points=[[0,0.5],[1,0.5]];portConstraint=eastwest;" vertex="1" parent="YlSi5dVUK5fDgeekknWG-72">
          <mxGeometry y="30" width="180" height="30" as="geometry" />
        </mxCell>
        <mxCell id="YlSi5dVUK5fDgeekknWG-74" value="1" style="shape=partialRectangle;html=1;whiteSpace=wrap;connectable=0;fillColor=none;top=0;left=0;bottom=0;right=0;overflow=hidden;" vertex="1" parent="YlSi5dVUK5fDgeekknWG-73">
          <mxGeometry width="40" height="30" as="geometry" />
        </mxCell>
        <mxCell id="YlSi5dVUK5fDgeekknWG-75" value="ID" style="shape=partialRectangle;html=1;whiteSpace=wrap;connectable=0;fillColor=none;top=0;left=0;bottom=0;right=0;align=left;spacingLeft=6;overflow=hidden;" vertex="1" parent="YlSi5dVUK5fDgeekknWG-73">
          <mxGeometry x="40" width="140" height="30" as="geometry" />
        </mxCell>
        <mxCell id="YlSi5dVUK5fDgeekknWG-76" value="" style="shape=partialRectangle;html=1;whiteSpace=wrap;collapsible=0;dropTarget=0;pointerEvents=0;fillColor=none;top=0;left=0;bottom=0;right=0;points=[[0,0.5],[1,0.5]];portConstraint=eastwest;" vertex="1" parent="YlSi5dVUK5fDgeekknWG-72">
          <mxGeometry y="60" width="180" height="30" as="geometry" />
        </mxCell>
        <mxCell id="YlSi5dVUK5fDgeekknWG-77" value="2" style="shape=partialRectangle;html=1;whiteSpace=wrap;connectable=0;fillColor=none;top=0;left=0;bottom=0;right=0;overflow=hidden;" vertex="1" parent="YlSi5dVUK5fDgeekknWG-76">
          <mxGeometry width="40" height="30" as="geometry" />
        </mxCell>
        <mxCell id="YlSi5dVUK5fDgeekknWG-78" value="member_id" style="shape=partialRectangle;html=1;whiteSpace=wrap;connectable=0;fillColor=none;top=0;left=0;bottom=0;right=0;align=left;spacingLeft=6;overflow=hidden;" vertex="1" parent="YlSi5dVUK5fDgeekknWG-76">
          <mxGeometry x="40" width="140" height="30" as="geometry" />
        </mxCell>
        <mxCell id="YlSi5dVUK5fDgeekknWG-79" value="" style="shape=partialRectangle;html=1;whiteSpace=wrap;collapsible=0;dropTarget=0;pointerEvents=0;fillColor=none;top=0;left=0;bottom=0;right=0;points=[[0,0.5],[1,0.5]];portConstraint=eastwest;" vertex="1" parent="YlSi5dVUK5fDgeekknWG-72">
          <mxGeometry y="90" width="180" height="30" as="geometry" />
        </mxCell>
        <mxCell id="YlSi5dVUK5fDgeekknWG-80" value="3" style="shape=partialRectangle;html=1;whiteSpace=wrap;connectable=0;fillColor=none;top=0;left=0;bottom=0;right=0;overflow=hidden;" vertex="1" parent="YlSi5dVUK5fDgeekknWG-79">
          <mxGeometry width="40" height="30" as="geometry" />
        </mxCell>
        <mxCell id="YlSi5dVUK5fDgeekknWG-81" value="admin_id" style="shape=partialRectangle;html=1;whiteSpace=wrap;connectable=0;fillColor=none;top=0;left=0;bottom=0;right=0;align=left;spacingLeft=6;overflow=hidden;" vertex="1" parent="YlSi5dVUK5fDgeekknWG-79">
          <mxGeometry x="40" width="140" height="30" as="geometry" />
        </mxCell>
        <mxCell id="3mrBlYlQJBhg7aza0nXE-89" value="Favorite" style="shape=table;startSize=30;container=1;collapsible=0;childLayout=tableLayout;fixedRows=1;rowLines=0;fontStyle=1;align=center;" vertex="1" parent="1">
          <mxGeometry x="448" y="255" width="180" height="150" as="geometry" />
        </mxCell>
        <mxCell id="3mrBlYlQJBhg7aza0nXE-90" value="" style="shape=partialRectangle;html=1;whiteSpace=wrap;collapsible=0;dropTarget=0;pointerEvents=0;fillColor=none;top=0;left=0;bottom=1;right=0;points=[[0,0.5],[1,0.5]];portConstraint=eastwest;" vertex="1" parent="3mrBlYlQJBhg7aza0nXE-89">
          <mxGeometry y="30" width="180" height="30" as="geometry" />
        </mxCell>
        <mxCell id="3mrBlYlQJBhg7aza0nXE-91" value="1" style="shape=partialRectangle;html=1;whiteSpace=wrap;connectable=0;fillColor=none;top=0;left=0;bottom=0;right=0;overflow=hidden;" vertex="1" parent="3mrBlYlQJBhg7aza0nXE-90">
          <mxGeometry width="40" height="30" as="geometry" />
        </mxCell>
        <mxCell id="3mrBlYlQJBhg7aza0nXE-92" value="ID" style="shape=partialRectangle;html=1;whiteSpace=wrap;connectable=0;fillColor=none;top=0;left=0;bottom=0;right=0;align=left;spacingLeft=6;overflow=hidden;" vertex="1" parent="3mrBlYlQJBhg7aza0nXE-90">
          <mxGeometry x="40" width="140" height="30" as="geometry" />
        </mxCell>
        <mxCell id="3mrBlYlQJBhg7aza0nXE-93" value="" style="shape=partialRectangle;html=1;whiteSpace=wrap;collapsible=0;dropTarget=0;pointerEvents=0;fillColor=none;top=0;left=0;bottom=0;right=0;points=[[0,0.5],[1,0.5]];portConstraint=eastwest;" vertex="1" parent="3mrBlYlQJBhg7aza0nXE-89">
          <mxGeometry y="60" width="180" height="30" as="geometry" />
        </mxCell>
        <mxCell id="3mrBlYlQJBhg7aza0nXE-94" value="2" style="shape=partialRectangle;html=1;whiteSpace=wrap;connectable=0;fillColor=none;top=0;left=0;bottom=0;right=0;overflow=hidden;" vertex="1" parent="3mrBlYlQJBhg7aza0nXE-93">
          <mxGeometry width="40" height="30" as="geometry" />
        </mxCell>
        <mxCell id="3mrBlYlQJBhg7aza0nXE-95" value="member_id" style="shape=partialRectangle;html=1;whiteSpace=wrap;connectable=0;fillColor=none;top=0;left=0;bottom=0;right=0;align=left;spacingLeft=6;overflow=hidden;" vertex="1" parent="3mrBlYlQJBhg7aza0nXE-93">
          <mxGeometry x="40" width="140" height="30" as="geometry" />
        </mxCell>
        <mxCell id="3mrBlYlQJBhg7aza0nXE-96" value="" style="shape=partialRectangle;html=1;whiteSpace=wrap;collapsible=0;dropTarget=0;pointerEvents=0;fillColor=none;top=0;left=0;bottom=0;right=0;points=[[0,0.5],[1,0.5]];portConstraint=eastwest;" vertex="1" parent="3mrBlYlQJBhg7aza0nXE-89">
          <mxGeometry y="90" width="180" height="30" as="geometry" />
        </mxCell>
        <mxCell id="3mrBlYlQJBhg7aza0nXE-97" value="3" style="shape=partialRectangle;html=1;whiteSpace=wrap;connectable=0;fillColor=none;top=0;left=0;bottom=0;right=0;overflow=hidden;" vertex="1" parent="3mrBlYlQJBhg7aza0nXE-96">
          <mxGeometry width="40" height="30" as="geometry" />
        </mxCell>
        <mxCell id="3mrBlYlQJBhg7aza0nXE-98" value="post_id" style="shape=partialRectangle;html=1;whiteSpace=wrap;connectable=0;fillColor=none;top=0;left=0;bottom=0;right=0;align=left;spacingLeft=6;overflow=hidden;" vertex="1" parent="3mrBlYlQJBhg7aza0nXE-96">
          <mxGeometry x="40" width="140" height="30" as="geometry" />
        </mxCell>
        <mxCell id="YlSi5dVUK5fDgeekknWG-82" value="Country" style="shape=table;startSize=30;container=1;collapsible=0;childLayout=tableLayout;fixedRows=1;rowLines=0;fontStyle=1;align=center;" vertex="1" parent="1">
          <mxGeometry x="1176" y="555" width="180" height="150" as="geometry" />
        </mxCell>
        <mxCell id="YlSi5dVUK5fDgeekknWG-83" value="" style="shape=partialRectangle;html=1;whiteSpace=wrap;collapsible=0;dropTarget=0;pointerEvents=0;fillColor=none;top=0;left=0;bottom=1;right=0;points=[[0,0.5],[1,0.5]];portConstraint=eastwest;" vertex="1" parent="YlSi5dVUK5fDgeekknWG-82">
          <mxGeometry y="30" width="180" height="30" as="geometry" />
        </mxCell>
        <mxCell id="YlSi5dVUK5fDgeekknWG-84" value="1" style="shape=partialRectangle;html=1;whiteSpace=wrap;connectable=0;fillColor=none;top=0;left=0;bottom=0;right=0;overflow=hidden;" vertex="1" parent="YlSi5dVUK5fDgeekknWG-83">
          <mxGeometry width="40" height="30" as="geometry" />
        </mxCell>
        <mxCell id="YlSi5dVUK5fDgeekknWG-85" value="ID" style="shape=partialRectangle;html=1;whiteSpace=wrap;connectable=0;fillColor=none;top=0;left=0;bottom=0;right=0;align=left;spacingLeft=6;overflow=hidden;" vertex="1" parent="YlSi5dVUK5fDgeekknWG-83">
          <mxGeometry x="40" width="140" height="30" as="geometry" />
        </mxCell>
        <mxCell id="YlSi5dVUK5fDgeekknWG-86" value="" style="shape=partialRectangle;html=1;whiteSpace=wrap;collapsible=0;dropTarget=0;pointerEvents=0;fillColor=none;top=0;left=0;bottom=0;right=0;points=[[0,0.5],[1,0.5]];portConstraint=eastwest;" vertex="1" parent="YlSi5dVUK5fDgeekknWG-82">
          <mxGeometry y="60" width="180" height="30" as="geometry" />
        </mxCell>
        <mxCell id="YlSi5dVUK5fDgeekknWG-87" value="2" style="shape=partialRectangle;html=1;whiteSpace=wrap;connectable=0;fillColor=none;top=0;left=0;bottom=0;right=0;overflow=hidden;" vertex="1" parent="YlSi5dVUK5fDgeekknWG-86">
          <mxGeometry width="40" height="30" as="geometry" />
        </mxCell>
        <mxCell id="YlSi5dVUK5fDgeekknWG-88" value="Value 2" style="shape=partialRectangle;html=1;whiteSpace=wrap;connectable=0;fillColor=none;top=0;left=0;bottom=0;right=0;align=left;spacingLeft=6;overflow=hidden;" vertex="1" parent="YlSi5dVUK5fDgeekknWG-86">
          <mxGeometry x="40" width="140" height="30" as="geometry" />
        </mxCell>
        <mxCell id="YlSi5dVUK5fDgeekknWG-89" value="" style="shape=partialRectangle;html=1;whiteSpace=wrap;collapsible=0;dropTarget=0;pointerEvents=0;fillColor=none;top=0;left=0;bottom=0;right=0;points=[[0,0.5],[1,0.5]];portConstraint=eastwest;" vertex="1" parent="YlSi5dVUK5fDgeekknWG-82">
          <mxGeometry y="90" width="180" height="30" as="geometry" />
        </mxCell>
        <mxCell id="YlSi5dVUK5fDgeekknWG-90" value="3" style="shape=partialRectangle;html=1;whiteSpace=wrap;connectable=0;fillColor=none;top=0;left=0;bottom=0;right=0;overflow=hidden;" vertex="1" parent="YlSi5dVUK5fDgeekknWG-89">
          <mxGeometry width="40" height="30" as="geometry" />
        </mxCell>
        <mxCell id="YlSi5dVUK5fDgeekknWG-91" value="Value 3" style="shape=partialRectangle;html=1;whiteSpace=wrap;connectable=0;fillColor=none;top=0;left=0;bottom=0;right=0;align=left;spacingLeft=6;overflow=hidden;" vertex="1" parent="YlSi5dVUK5fDgeekknWG-89">
          <mxGeometry x="40" width="140" height="30" as="geometry" />
        </mxCell>
        <mxCell id="3mrBlYlQJBhg7aza0nXE-99" value="Post" style="shape=table;startSize=30;container=1;collapsible=0;childLayout=tableLayout;fixedRows=1;rowLines=0;fontStyle=1;align=center;" vertex="1" parent="1">
          <mxGeometry x="448" y="561" width="180" height="174.9310344827586" as="geometry" />
        </mxCell>
        <mxCell id="3mrBlYlQJBhg7aza0nXE-100" value="" style="shape=partialRectangle;html=1;whiteSpace=wrap;collapsible=0;dropTarget=0;pointerEvents=0;fillColor=none;top=0;left=0;bottom=1;right=0;points=[[0,0.5],[1,0.5]];portConstraint=eastwest;" vertex="1" parent="3mrBlYlQJBhg7aza0nXE-99">
          <mxGeometry y="30" width="180" height="55" as="geometry" />
        </mxCell>
        <mxCell id="3mrBlYlQJBhg7aza0nXE-101" value="1" style="shape=partialRectangle;html=1;whiteSpace=wrap;connectable=0;fillColor=none;top=0;left=0;bottom=0;right=0;overflow=hidden;" vertex="1" parent="3mrBlYlQJBhg7aza0nXE-100">
          <mxGeometry width="40" height="55" as="geometry" />
        </mxCell>
        <mxCell id="3mrBlYlQJBhg7aza0nXE-102" value="ID" style="shape=partialRectangle;html=1;whiteSpace=wrap;connectable=0;fillColor=none;top=0;left=0;bottom=0;right=0;align=left;spacingLeft=6;overflow=hidden;" vertex="1" parent="3mrBlYlQJBhg7aza0nXE-100">
          <mxGeometry x="40" width="140" height="55" as="geometry" />
        </mxCell>
        <mxCell id="3mrBlYlQJBhg7aza0nXE-103" value="" style="shape=partialRectangle;html=1;whiteSpace=wrap;collapsible=0;dropTarget=0;pointerEvents=0;fillColor=none;top=0;left=0;bottom=0;right=0;points=[[0,0.5],[1,0.5]];portConstraint=eastwest;" vertex="1" parent="3mrBlYlQJBhg7aza0nXE-99">
          <mxGeometry y="85" width="180" height="30" as="geometry" />
        </mxCell>
        <mxCell id="3mrBlYlQJBhg7aza0nXE-104" value="2" style="shape=partialRectangle;html=1;whiteSpace=wrap;connectable=0;fillColor=none;top=0;left=0;bottom=0;right=0;overflow=hidden;" vertex="1" parent="3mrBlYlQJBhg7aza0nXE-103">
          <mxGeometry width="40" height="30" as="geometry" />
        </mxCell>
        <mxCell id="3mrBlYlQJBhg7aza0nXE-105" value="Value 2" style="shape=partialRectangle;html=1;whiteSpace=wrap;connectable=0;fillColor=none;top=0;left=0;bottom=0;right=0;align=left;spacingLeft=6;overflow=hidden;" vertex="1" parent="3mrBlYlQJBhg7aza0nXE-103">
          <mxGeometry x="40" width="140" height="30" as="geometry" />
        </mxCell>
        <mxCell id="3mrBlYlQJBhg7aza0nXE-106" value="" style="shape=partialRectangle;html=1;whiteSpace=wrap;collapsible=0;dropTarget=0;pointerEvents=0;fillColor=none;top=0;left=0;bottom=0;right=0;points=[[0,0.5],[1,0.5]];portConstraint=eastwest;" vertex="1" parent="3mrBlYlQJBhg7aza0nXE-99">
          <mxGeometry y="115" width="180" height="30" as="geometry" />
        </mxCell>
        <mxCell id="3mrBlYlQJBhg7aza0nXE-107" value="3" style="shape=partialRectangle;html=1;whiteSpace=wrap;connectable=0;fillColor=none;top=0;left=0;bottom=0;right=0;overflow=hidden;" vertex="1" parent="3mrBlYlQJBhg7aza0nXE-106">
          <mxGeometry width="40" height="30" as="geometry" />
        </mxCell>
        <mxCell id="3mrBlYlQJBhg7aza0nXE-108" value="Value 3" style="shape=partialRectangle;html=1;whiteSpace=wrap;connectable=0;fillColor=none;top=0;left=0;bottom=0;right=0;align=left;spacingLeft=6;overflow=hidden;" vertex="1" parent="3mrBlYlQJBhg7aza0nXE-106">
          <mxGeometry x="40" width="140" height="30" as="geometry" />
        </mxCell>
        <mxCell id="YlSi5dVUK5fDgeekknWG-92" value="Food Ranking" style="shape=table;startSize=30;container=1;collapsible=0;childLayout=tableLayout;fixedRows=1;rowLines=0;fontStyle=1;align=center;" vertex="1" parent="1">
          <mxGeometry x="867" y="1098" width="180" height="150" as="geometry" />
        </mxCell>
        <mxCell id="YlSi5dVUK5fDgeekknWG-93" value="" style="shape=partialRectangle;html=1;whiteSpace=wrap;collapsible=0;dropTarget=0;pointerEvents=0;fillColor=none;top=0;left=0;bottom=1;right=0;points=[[0,0.5],[1,0.5]];portConstraint=eastwest;" vertex="1" parent="YlSi5dVUK5fDgeekknWG-92">
          <mxGeometry y="30" width="180" height="30" as="geometry" />
        </mxCell>
        <mxCell id="YlSi5dVUK5fDgeekknWG-94" value="1" style="shape=partialRectangle;html=1;whiteSpace=wrap;connectable=0;fillColor=none;top=0;left=0;bottom=0;right=0;overflow=hidden;" vertex="1" parent="YlSi5dVUK5fDgeekknWG-93">
          <mxGeometry width="40" height="30" as="geometry" />
        </mxCell>
        <mxCell id="YlSi5dVUK5fDgeekknWG-95" value="ID" style="shape=partialRectangle;html=1;whiteSpace=wrap;connectable=0;fillColor=none;top=0;left=0;bottom=0;right=0;align=left;spacingLeft=6;overflow=hidden;" vertex="1" parent="YlSi5dVUK5fDgeekknWG-93">
          <mxGeometry x="40" width="140" height="30" as="geometry" />
        </mxCell>
        <mxCell id="YlSi5dVUK5fDgeekknWG-96" value="" style="shape=partialRectangle;html=1;whiteSpace=wrap;collapsible=0;dropTarget=0;pointerEvents=0;fillColor=none;top=0;left=0;bottom=0;right=0;points=[[0,0.5],[1,0.5]];portConstraint=eastwest;" vertex="1" parent="YlSi5dVUK5fDgeekknWG-92">
          <mxGeometry y="60" width="180" height="30" as="geometry" />
        </mxCell>
        <mxCell id="YlSi5dVUK5fDgeekknWG-97" value="2" style="shape=partialRectangle;html=1;whiteSpace=wrap;connectable=0;fillColor=none;top=0;left=0;bottom=0;right=0;overflow=hidden;" vertex="1" parent="YlSi5dVUK5fDgeekknWG-96">
          <mxGeometry width="40" height="30" as="geometry" />
        </mxCell>
        <mxCell id="YlSi5dVUK5fDgeekknWG-98" value="Value 2" style="shape=partialRectangle;html=1;whiteSpace=wrap;connectable=0;fillColor=none;top=0;left=0;bottom=0;right=0;align=left;spacingLeft=6;overflow=hidden;" vertex="1" parent="YlSi5dVUK5fDgeekknWG-96">
          <mxGeometry x="40" width="140" height="30" as="geometry" />
        </mxCell>
        <mxCell id="YlSi5dVUK5fDgeekknWG-99" value="" style="shape=partialRectangle;html=1;whiteSpace=wrap;collapsible=0;dropTarget=0;pointerEvents=0;fillColor=none;top=0;left=0;bottom=0;right=0;points=[[0,0.5],[1,0.5]];portConstraint=eastwest;" vertex="1" parent="YlSi5dVUK5fDgeekknWG-92">
          <mxGeometry y="90" width="180" height="30" as="geometry" />
        </mxCell>
        <mxCell id="YlSi5dVUK5fDgeekknWG-100" value="3" style="shape=partialRectangle;html=1;whiteSpace=wrap;connectable=0;fillColor=none;top=0;left=0;bottom=0;right=0;overflow=hidden;" vertex="1" parent="YlSi5dVUK5fDgeekknWG-99">
          <mxGeometry width="40" height="30" as="geometry" />
        </mxCell>
        <mxCell id="YlSi5dVUK5fDgeekknWG-101" value="Value 3" style="shape=partialRectangle;html=1;whiteSpace=wrap;connectable=0;fillColor=none;top=0;left=0;bottom=0;right=0;align=left;spacingLeft=6;overflow=hidden;" vertex="1" parent="YlSi5dVUK5fDgeekknWG-99">
          <mxGeometry x="40" width="140" height="30" as="geometry" />
        </mxCell>
        <mxCell id="3mrBlYlQJBhg7aza0nXE-109" value="Activity" style="shape=table;startSize=30;container=1;collapsible=0;childLayout=tableLayout;fixedRows=1;rowLines=0;fontStyle=1;align=center;" vertex="1" parent="1">
          <mxGeometry x="-266" y="555" width="180" height="151.25000000000006" as="geometry" />
        </mxCell>
        <mxCell id="3mrBlYlQJBhg7aza0nXE-110" value="" style="shape=partialRectangle;html=1;whiteSpace=wrap;collapsible=0;dropTarget=0;pointerEvents=0;fillColor=none;top=0;left=0;bottom=1;right=0;points=[[0,0.5],[1,0.5]];portConstraint=eastwest;" vertex="1" parent="3mrBlYlQJBhg7aza0nXE-109">
          <mxGeometry y="30" width="180" height="30" as="geometry" />
        </mxCell>
        <mxCell id="3mrBlYlQJBhg7aza0nXE-111" value="1" style="shape=partialRectangle;html=1;whiteSpace=wrap;connectable=0;fillColor=none;top=0;left=0;bottom=0;right=0;overflow=hidden;" vertex="1" parent="3mrBlYlQJBhg7aza0nXE-110">
          <mxGeometry width="40" height="30" as="geometry" />
        </mxCell>
        <mxCell id="3mrBlYlQJBhg7aza0nXE-112" value="ID" style="shape=partialRectangle;html=1;whiteSpace=wrap;connectable=0;fillColor=none;top=0;left=0;bottom=0;right=0;align=left;spacingLeft=6;overflow=hidden;" vertex="1" parent="3mrBlYlQJBhg7aza0nXE-110">
          <mxGeometry x="40" width="140" height="30" as="geometry" />
        </mxCell>
        <mxCell id="3mrBlYlQJBhg7aza0nXE-113" value="" style="shape=partialRectangle;html=1;whiteSpace=wrap;collapsible=0;dropTarget=0;pointerEvents=0;fillColor=none;top=0;left=0;bottom=0;right=0;points=[[0,0.5],[1,0.5]];portConstraint=eastwest;" vertex="1" parent="3mrBlYlQJBhg7aza0nXE-109">
          <mxGeometry y="60" width="180" height="30" as="geometry" />
        </mxCell>
        <mxCell id="3mrBlYlQJBhg7aza0nXE-114" value="2" style="shape=partialRectangle;html=1;whiteSpace=wrap;connectable=0;fillColor=none;top=0;left=0;bottom=0;right=0;overflow=hidden;" vertex="1" parent="3mrBlYlQJBhg7aza0nXE-113">
          <mxGeometry width="40" height="30" as="geometry" />
        </mxCell>
        <mxCell id="3mrBlYlQJBhg7aza0nXE-115" value="member_id" style="shape=partialRectangle;html=1;whiteSpace=wrap;connectable=0;fillColor=none;top=0;left=0;bottom=0;right=0;align=left;spacingLeft=6;overflow=hidden;" vertex="1" parent="3mrBlYlQJBhg7aza0nXE-113">
          <mxGeometry x="40" width="140" height="30" as="geometry" />
        </mxCell>
        <mxCell id="3mrBlYlQJBhg7aza0nXE-116" value="" style="shape=partialRectangle;html=1;whiteSpace=wrap;collapsible=0;dropTarget=0;pointerEvents=0;fillColor=none;top=0;left=0;bottom=0;right=0;points=[[0,0.5],[1,0.5]];portConstraint=eastwest;" vertex="1" parent="3mrBlYlQJBhg7aza0nXE-109">
          <mxGeometry y="90" width="180" height="31" as="geometry" />
        </mxCell>
        <mxCell id="3mrBlYlQJBhg7aza0nXE-117" value="3" style="shape=partialRectangle;html=1;whiteSpace=wrap;connectable=0;fillColor=none;top=0;left=0;bottom=0;right=0;overflow=hidden;" vertex="1" parent="3mrBlYlQJBhg7aza0nXE-116">
          <mxGeometry width="40" height="31" as="geometry" />
        </mxCell>
        <mxCell id="3mrBlYlQJBhg7aza0nXE-118" value="Value 3" style="shape=partialRectangle;html=1;whiteSpace=wrap;connectable=0;fillColor=none;top=0;left=0;bottom=0;right=0;align=left;spacingLeft=6;overflow=hidden;" vertex="1" parent="3mrBlYlQJBhg7aza0nXE-116">
          <mxGeometry x="40" width="140" height="31" as="geometry" />
        </mxCell>
        <mxCell id="3mrBlYlQJBhg7aza0nXE-131" value="Food" style="shape=table;startSize=30;container=1;collapsible=0;childLayout=tableLayout;fixedRows=1;rowLines=0;fontStyle=1;align=center;" vertex="1" parent="1">
          <mxGeometry x="867" y="561" width="180" height="150" as="geometry" />
        </mxCell>
        <mxCell id="3mrBlYlQJBhg7aza0nXE-132" value="" style="shape=partialRectangle;html=1;whiteSpace=wrap;collapsible=0;dropTarget=0;pointerEvents=0;fillColor=none;top=0;left=0;bottom=1;right=0;points=[[0,0.5],[1,0.5]];portConstraint=eastwest;" vertex="1" parent="3mrBlYlQJBhg7aza0nXE-131">
          <mxGeometry y="30" width="180" height="30" as="geometry" />
        </mxCell>
        <mxCell id="3mrBlYlQJBhg7aza0nXE-133" value="1" style="shape=partialRectangle;html=1;whiteSpace=wrap;connectable=0;fillColor=none;top=0;left=0;bottom=0;right=0;overflow=hidden;" vertex="1" parent="3mrBlYlQJBhg7aza0nXE-132">
          <mxGeometry width="40" height="30" as="geometry" />
        </mxCell>
        <mxCell id="3mrBlYlQJBhg7aza0nXE-134" value="ID" style="shape=partialRectangle;html=1;whiteSpace=wrap;connectable=0;fillColor=none;top=0;left=0;bottom=0;right=0;align=left;spacingLeft=6;overflow=hidden;" vertex="1" parent="3mrBlYlQJBhg7aza0nXE-132">
          <mxGeometry x="40" width="140" height="30" as="geometry" />
        </mxCell>
        <mxCell id="3mrBlYlQJBhg7aza0nXE-135" value="" style="shape=partialRectangle;html=1;whiteSpace=wrap;collapsible=0;dropTarget=0;pointerEvents=0;fillColor=none;top=0;left=0;bottom=0;right=0;points=[[0,0.5],[1,0.5]];portConstraint=eastwest;" vertex="1" parent="3mrBlYlQJBhg7aza0nXE-131">
          <mxGeometry y="60" width="180" height="30" as="geometry" />
        </mxCell>
        <mxCell id="3mrBlYlQJBhg7aza0nXE-136" value="2" style="shape=partialRectangle;html=1;whiteSpace=wrap;connectable=0;fillColor=none;top=0;left=0;bottom=0;right=0;overflow=hidden;" vertex="1" parent="3mrBlYlQJBhg7aza0nXE-135">
          <mxGeometry width="40" height="30" as="geometry" />
        </mxCell>
        <mxCell id="3mrBlYlQJBhg7aza0nXE-137" value="Value 2" style="shape=partialRectangle;html=1;whiteSpace=wrap;connectable=0;fillColor=none;top=0;left=0;bottom=0;right=0;align=left;spacingLeft=6;overflow=hidden;" vertex="1" parent="3mrBlYlQJBhg7aza0nXE-135">
          <mxGeometry x="40" width="140" height="30" as="geometry" />
        </mxCell>
        <mxCell id="3mrBlYlQJBhg7aza0nXE-138" value="" style="shape=partialRectangle;html=1;whiteSpace=wrap;collapsible=0;dropTarget=0;pointerEvents=0;fillColor=none;top=0;left=0;bottom=0;right=0;points=[[0,0.5],[1,0.5]];portConstraint=eastwest;" vertex="1" parent="3mrBlYlQJBhg7aza0nXE-131">
          <mxGeometry y="90" width="180" height="30" as="geometry" />
        </mxCell>
        <mxCell id="3mrBlYlQJBhg7aza0nXE-139" value="3" style="shape=partialRectangle;html=1;whiteSpace=wrap;connectable=0;fillColor=none;top=0;left=0;bottom=0;right=0;overflow=hidden;" vertex="1" parent="3mrBlYlQJBhg7aza0nXE-138">
          <mxGeometry width="40" height="30" as="geometry" />
        </mxCell>
        <mxCell id="3mrBlYlQJBhg7aza0nXE-140" value="Value 3" style="shape=partialRectangle;html=1;whiteSpace=wrap;connectable=0;fillColor=none;top=0;left=0;bottom=0;right=0;align=left;spacingLeft=6;overflow=hidden;" vertex="1" parent="3mrBlYlQJBhg7aza0nXE-138">
          <mxGeometry x="40" width="140" height="30" as="geometry" />
        </mxCell>
        <mxCell id="3mrBlYlQJBhg7aza0nXE-147" value="" style="edgeStyle=entityRelationEdgeStyle;fontSize=12;html=1;endArrow=ERzeroToMany;startArrow=ERmandOne;exitX=1;exitY=0.5;exitDx=0;exitDy=0;" edge="1" parent="1" source="YlSi5dVUK5fDgeekknWG-4" target="3mrBlYlQJBhg7aza0nXE-89">
          <mxGeometry width="100" height="100" relative="1" as="geometry">
            <mxPoint x="288" y="589" as="sourcePoint" />
            <mxPoint x="441" y="263" as="targetPoint" />
          </mxGeometry>
        </mxCell>
        <mxCell id="3mrBlYlQJBhg7aza0nXE-151" value="" style="edgeStyle=entityRelationEdgeStyle;fontSize=12;html=1;endArrow=ERzeroToMany;startArrow=ERmandOne;exitX=0;exitY=0.5;exitDx=0;exitDy=0;" edge="1" parent="1" source="YlSi5dVUK5fDgeekknWG-4" target="3mrBlYlQJBhg7aza0nXE-113">
          <mxGeometry width="100" height="100" relative="1" as="geometry">
            <mxPoint x="-197" y="561" as="sourcePoint" />
            <mxPoint x="-9" y="285" as="targetPoint" />
          </mxGeometry>
        </mxCell>
        <mxCell id="3mrBlYlQJBhg7aza0nXE-152" value="" style="edgeStyle=entityRelationEdgeStyle;fontSize=12;html=1;endArrow=ERzeroToMany;startArrow=ERmandOne;entryX=1;entryY=0.5;entryDx=0;entryDy=0;" edge="1" parent="1" source="YlSi5dVUK5fDgeekknWG-4" target="YlSi5dVUK5fDgeekknWG-37">
          <mxGeometry width="100" height="100" relative="1" as="geometry">
            <mxPoint x="266" y="615" as="sourcePoint" />
            <mxPoint x="408" y="848" as="targetPoint" />
          </mxGeometry>
        </mxCell>
        <mxCell id="3mrBlYlQJBhg7aza0nXE-153" value="" style="edgeStyle=entityRelationEdgeStyle;fontSize=12;html=1;endArrow=ERzeroToMany;startArrow=ERmandOne;" edge="1" parent="1" source="YlSi5dVUK5fDgeekknWG-4" target="3mrBlYlQJBhg7aza0nXE-23">
          <mxGeometry width="100" height="100" relative="1" as="geometry">
            <mxPoint x="270" y="616" as="sourcePoint" />
            <mxPoint x="270" y="914" as="targetPoint" />
          </mxGeometry>
        </mxCell>
        <mxCell id="3mrBlYlQJBhg7aza0nXE-154" value="" style="edgeStyle=entityRelationEdgeStyle;fontSize=12;html=1;endArrow=ERzeroToMany;startArrow=ERmandOne;" edge="1" parent="1" source="YlSi5dVUK5fDgeekknWG-4" target="3mrBlYlQJBhg7aza0nXE-74">
          <mxGeometry width="100" height="100" relative="1" as="geometry">
            <mxPoint x="346" y="624" as="sourcePoint" />
            <mxPoint x="364" y="926" as="targetPoint" />
          </mxGeometry>
        </mxCell>
        <mxCell id="3mrBlYlQJBhg7aza0nXE-155" value="" style="edgeStyle=entityRelationEdgeStyle;fontSize=12;html=1;endArrow=ERzeroToMany;startArrow=ERmandOne;exitX=0;exitY=0.5;exitDx=0;exitDy=0;" edge="1" parent="1" source="YlSi5dVUK5fDgeekknWG-4" target="3mrBlYlQJBhg7aza0nXE-64">
          <mxGeometry width="100" height="100" relative="1" as="geometry">
            <mxPoint x="-11" y="689" as="sourcePoint" />
            <mxPoint x="-87" y="779" as="targetPoint" />
          </mxGeometry>
        </mxCell>
        <mxCell id="3mrBlYlQJBhg7aza0nXE-156" value="" style="edgeStyle=entityRelationEdgeStyle;fontSize=12;html=1;endArrow=ERzeroToMany;startArrow=ERzeroToOne;exitX=0.994;exitY=0.192;exitDx=0;exitDy=0;exitPerimeter=0;fillColor=#f8cecc;strokeColor=#b85450;" edge="1" parent="1" source="YlSi5dVUK5fDgeekknWG-4" target="YlSi5dVUK5fDgeekknWG-76">
          <mxGeometry width="100" height="100" relative="1" as="geometry">
            <mxPoint x="263" y="608" as="sourcePoint" />
            <mxPoint x="862" y="897" as="targetPoint" />
          </mxGeometry>
        </mxCell>
        <mxCell id="3mrBlYlQJBhg7aza0nXE-157" value="" style="edgeStyle=entityRelationEdgeStyle;fontSize=12;html=1;endArrow=ERzeroToMany;startArrow=ERmandOne;entryX=1;entryY=0.5;entryDx=0;entryDy=0;exitX=1;exitY=0.273;exitDx=0;exitDy=0;exitPerimeter=0;" edge="1" parent="1" source="3mrBlYlQJBhg7aza0nXE-100" target="3mrBlYlQJBhg7aza0nXE-96">
          <mxGeometry width="100" height="100" relative="1" as="geometry">
            <mxPoint x="634" y="606" as="sourcePoint" />
            <mxPoint x="825" y="362" as="targetPoint" />
          </mxGeometry>
        </mxCell>
        <mxCell id="3mrBlYlQJBhg7aza0nXE-158" value="" style="edgeStyle=entityRelationEdgeStyle;fontSize=12;html=1;endArrow=ERzeroToMany;startArrow=ERmandOne;exitX=0.004;exitY=0.204;exitDx=0;exitDy=0;exitPerimeter=0;" edge="1" parent="1" source="3mrBlYlQJBhg7aza0nXE-100" target="3mrBlYlQJBhg7aza0nXE-77">
          <mxGeometry width="100" height="100" relative="1" as="geometry">
            <mxPoint x="637.9999999999998" y="615.5" as="sourcePoint" />
            <mxPoint x="637.9999999999998" y="370" as="targetPoint" />
          </mxGeometry>
        </mxCell>
        <mxCell id="3mrBlYlQJBhg7aza0nXE-159" value="" style="edgeStyle=entityRelationEdgeStyle;fontSize=12;html=1;endArrow=ERzeroToMany;startArrow=ERmandOne;exitX=0.998;exitY=0.279;exitDx=0;exitDy=0;exitPerimeter=0;" edge="1" parent="1" source="3mrBlYlQJBhg7aza0nXE-100" target="3mrBlYlQJBhg7aza0nXE-26">
          <mxGeometry width="100" height="100" relative="1" as="geometry">
            <mxPoint x="628" y="625" as="sourcePoint" />
            <mxPoint x="734" y="927" as="targetPoint" />
          </mxGeometry>
        </mxCell>
        <mxCell id="3mrBlYlQJBhg7aza0nXE-160" value="" style="edgeStyle=entityRelationEdgeStyle;fontSize=12;html=1;endArrow=ERmandOne;startArrow=ERmandOne;fontStyle=4;exitX=1;exitY=0.5;exitDx=0;exitDy=0;fillColor=#dae8fc;strokeColor=#6c8ebf;" edge="1" parent="1" source="YlSi5dVUK5fDgeekknWG-53" target="YlSi5dVUK5fDgeekknWG-40">
          <mxGeometry width="100" height="100" relative="1" as="geometry">
            <mxPoint x="260" y="1149" as="sourcePoint" />
            <mxPoint x="80" y="874" as="targetPoint" />
          </mxGeometry>
        </mxCell>
        <mxCell id="3mrBlYlQJBhg7aza0nXE-175" value="" style="edgeStyle=entityRelationEdgeStyle;fontSize=12;html=1;endArrow=ERzeroToMany;startArrow=ERmandOne;exitX=1;exitY=0.5;exitDx=0;exitDy=0;" edge="1" parent="1" source="YlSi5dVUK5fDgeekknWG-14" target="YlSi5dVUK5fDgeekknWG-56">
          <mxGeometry width="100" height="100" relative="1" as="geometry">
            <mxPoint x="-49" y="1128" as="sourcePoint" />
            <mxPoint x="51" y="1028" as="targetPoint" />
          </mxGeometry>
        </mxCell>
        <mxCell id="3mrBlYlQJBhg7aza0nXE-176" value="" style="edgeStyle=entityRelationEdgeStyle;fontSize=12;html=1;endArrow=ERzeroToMany;startArrow=ERmandOne;exitX=1;exitY=0.5;exitDx=0;exitDy=0;" edge="1" parent="1" source="YlSi5dVUK5fDgeekknWG-14" target="YlSi5dVUK5fDgeekknWG-66">
          <mxGeometry width="100" height="100" relative="1" as="geometry">
            <mxPoint x="-81" y="1201" as="sourcePoint" />
            <mxPoint x="167" y="1324" as="targetPoint" />
          </mxGeometry>
        </mxCell>
        <mxCell id="3mrBlYlQJBhg7aza0nXE-177" value="" style="edgeStyle=entityRelationEdgeStyle;fontSize=12;html=1;endArrow=ERzeroToMany;startArrow=ERmandOne;" edge="1" parent="1" target="YlSi5dVUK5fDgeekknWG-79">
          <mxGeometry width="100" height="100" relative="1" as="geometry">
            <mxPoint x="-85" y="1119" as="sourcePoint" />
            <mxPoint x="702" y="1078" as="targetPoint" />
          </mxGeometry>
        </mxCell>
      </root>
    </mxGraphModel>
  </diagram>
</mxfile>
